<svg width="599.386572265625px" height="129.2px" xmlns="http://www.w3.org/2000/svg" viewBox="-49.69328613281249 10.400000000000006 599.386572265625 129.2" style="background: rgba(0, 0, 0, 0);" preserveAspectRatio="xMidYMid"><defs><filter id="editing-metal-beveled"><feGaussianBlur stdDeviation="4" in="SourceAlpha" result="blur"></feGaussianBlur><feSpecularLighting surfaceScale="5" specularConstant="0.8" specularExponent="7.5" lighting-color="#fff" in="blur" result="specular"><fePointLight x="-250" y="-50" z="300"></fePointLight></feSpecularLighting><feComposite operator="in" in="specular" in2="SourceAlpha" result="comp"></feComposite><feComposite in="SourceGraphic" in2="comp" operator="arithmetic" k1="0" k2="1" k3="1" k4="0"></feComposite></filter></defs><g filter="url(#editing-metal-beveled)"><g transform="translate(38.32369613647461, 102.06999969482422)"><path d="M76.54-28.61L76.54-28.61L76.54-28.61Q76.54-25.34 73.28-21.44L73.28-21.44L73.28-21.44Q70.02-17.54 63.39-15.10L63.39-15.10L63.39-15.10Q56.77-12.67 50.53-12.67L50.53-12.67L50.53-12.67Q44.29-12.67 40.64-14.27L40.64-14.27L40.64-14.27Q32.58-2.43 30.14 0L30.14 0L30.14 0Q23.23 6.91 13.63 6.91L13.63 6.91L13.63 6.91Q8.19 6.91 5.47 4.38L5.47 4.38L5.47 4.38Q2.75 1.86 2.75-2.18L2.75-2.18L2.75-2.18Q2.75-7.74 7.23-12.67L7.23-12.67L7.23-12.67Q12.16-18.11 19.65-18.11L19.65-18.11L19.65-18.11Q22.72-18.11 24.83-16.70L24.83-16.70L24.83-16.70Q26.94-15.30 26.94-12.42L26.94-12.42L26.94-12.42Q26.94-10.50 24.77-7.81L24.77-7.81L24.77-7.81Q22.59-5.12 22.08-5.12L22.08-5.12L22.08-5.12Q21.95-5.12 21.95-5.38L21.95-5.38L21.95-5.38Q21.95-5.63 22.14-5.89L22.14-5.89L22.14-5.89Q24.19-8.90 24.19-11.42L24.19-11.42L24.19-11.42Q24.19-13.95 22.62-15.33L22.62-15.33L22.62-15.33Q21.06-16.70 18.75-16.70L18.75-16.70L18.75-16.70Q13.38-16.70 9.25-11.81L9.25-11.81L9.25-11.81Q5.12-6.91 5.12-1.92L5.12-1.92L5.12-1.92Q5.12 1.28 7.14 3.26L7.14 3.26L7.14 3.26Q9.15 5.25 13.38 5.25L13.38 5.25L13.38 5.25Q21.25 5.25 26.88-0.06L26.88-0.06L26.88-0.06Q30.14-3.14 33.47-9.02L33.47-9.02L39.04-19.07L39.04-19.07Q43.14-25.66 48.58-38.66L48.58-38.66L48.58-38.66Q48-38.66 47.42-38.66L47.42-38.66L47.42-38.66Q38.78-38.66 30.08-36.77L30.08-36.77L30.08-36.77Q21.38-34.88 16.90-31.36L16.90-31.36L16.90-31.36Q14.98-29.89 14.98-28.48L14.98-28.48L14.98-28.48Q14.98-27.07 16.48-26.21L16.48-26.21L16.48-26.21Q17.98-25.34 20.03-25.34L20.03-25.34L20.03-25.34Q22.08-25.34 25.12-26.14L25.12-26.14L25.12-26.14Q28.16-26.94 29.70-28.29L29.70-28.29L29.70-28.29Q30.34-28.80 30.59-28.80L30.59-28.80L30.59-28.80Q31.10-28.80 30.78-28.29L30.78-28.29L30.78-28.29Q28.48-25.60 23.81-24.26L23.81-24.26L23.81-24.26Q20.93-23.42 18.11-23.42L18.11-23.42L18.11-23.42Q15.30-23.42 13.50-24.67L13.50-24.67L13.50-24.67Q11.71-25.92 11.71-28.06L11.71-28.06L11.71-28.06Q11.71-30.21 14.02-32.38L14.02-32.38L14.02-32.38Q18.37-36.61 29.57-38.66L29.57-38.66L29.57-38.66Q37.50-40.06 47.81-40.06L47.81-40.06L47.81-40.06Q48.64-40.06 49.54-40.06L49.54-40.06L49.54-40.06Q50.94-41.28 52.10-41.28L52.10-41.28L52.10-41.28Q53.25-41.28 53.25-40.38L53.25-40.38L53.25-40.38Q53.25-40.19 53.18-39.94L53.18-39.94L53.18-39.94Q63.10-39.23 69.25-36.61L69.25-36.61L69.25-36.61Q76.54-33.54 76.54-28.61ZM73.54-29.25L73.54-29.25L73.54-29.25Q73.54-33.28 67.01-35.84L67.01-35.84L67.01-35.84Q61.31-38.08 52.74-38.53L52.74-38.53L50.69-32.13L50.69-32.13Q48.26-26.11 41.34-15.36L41.34-15.36L41.34-15.36Q41.98-15.04 43.52-14.66L43.52-14.66L43.52-14.66Q46.08-14.21 47.49-14.21L47.49-14.21L47.49-14.21Q52.35-14.21 58.69-16.22L58.69-16.22L58.69-16.22Q65.02-18.24 69.28-22.11L69.28-22.11L69.28-22.11Q73.54-25.98 73.54-29.25ZM70.91 0.83L70.91 0.83L70.91 0.83Q70.21 0.83 69.63 0.64L69.63 0.64L69.63 0.64Q65.54-0.51 65.54-3.97L65.54-3.97L65.54-3.97Q65.54-8.45 71.17-14.34L71.17-14.34L71.17-14.34Q76.80-20.22 81.28-20.22L81.28-20.22L81.28-20.22Q82.75-20.22 83.68-19.42L83.68-19.42L83.68-19.42Q84.61-18.62 84.61-17.47L84.61-17.47L84.61-17.47Q84.61-13.89 79.20-10.62L79.20-10.62L79.20-10.62Q73.79-7.36 70.40-7.36L70.40-7.36L70.40-7.36Q69.89-7.36 69.50-7.49L69.50-7.49L69.50-7.49Q68.54-5.76 68.54-3.84L68.54-3.84L68.54-3.84Q68.54-0.51 71.71-0.51L71.71-0.51L71.71-0.51Q74.88-0.51 79.94-4.80L79.94-4.80L79.94-4.80Q83.84-7.94 86.59-11.46L86.59-11.46L86.59-11.46Q87.17-12.22 87.58-12.22L87.58-12.22L87.58-12.22Q88-12.22 88-11.84L88-11.84L88-11.84Q88-11.46 87.49-10.75L87.49-10.75L87.49-10.75Q84.03-6.21 79.17-2.69L79.17-2.69L79.17-2.69Q74.30 0.83 70.91 0.83ZM83.01-17.60L83.01-17.60L83.01-17.60Q83.01-18.37 81.38-18.37L81.38-18.37L81.38-18.37Q79.74-18.37 76.74-15.87L76.74-15.87L76.74-15.87Q72.70-12.54 70.46-8.90L70.46-8.90L70.46-8.90Q70.85-8.77 71.30-8.77L71.30-8.77L71.30-8.77Q73.73-8.77 77.79-11.36L77.79-11.36L77.79-11.36Q81.86-13.95 82.88-17.02L82.88-17.02L82.88-17.02Q83.01-17.34 83.01-17.60ZM97.15 0.32L97.15 0.32L97.15 0.32Q92.35 0.32 92.35-4.99L92.35-4.99L92.35-4.99Q92.35-7.68 93.76-10.88L93.76-10.88L93.76-10.88Q95.17-14.08 96.83-16.26L96.83-16.26L96.83-16.26Q96.51-16.19 96-16.19L96-16.19L96-16.19Q94.46-16.19 93.44-18.37L93.44-18.37L88.70-12.22L88.70-12.22Q84.74-7.30 84.10-7.30L84.10-7.30L84.10-7.30Q83.78-7.30 83.78-7.55L83.78-7.55L83.78-7.55Q83.78-8.19 84.86-9.41L84.86-9.41L84.86-9.41Q90.43-15.87 92.74-20.35L92.74-20.35L92.74-20.35Q94.21-25.92 96.45-25.92L96.45-25.92L96.45-25.92Q97.92-25.92 97.92-24.64L97.92-24.64L97.92-24.64Q97.92-23.36 96.32-21.38L96.32-21.38L94.78-19.33L94.78-19.33Q94.78-17.98 96.77-17.98L96.77-17.98L96.77-17.98Q97.92-17.98 99.33-18.82L99.33-18.82L100.99-19.84L100.99-19.84Q101.12-19.90 101.63-19.90L101.63-19.90L101.63-19.90Q102.14-19.90 102.72-19.26L102.72-19.26L102.72-19.26Q103.30-18.62 103.10-18.11L103.10-18.11L98.69-12.54L98.69-12.54Q94.59-7.30 94.59-4.26L94.59-4.26L94.59-4.26Q94.59-1.22 97.41-1.22L97.41-1.22L97.41-1.22Q100.35-1.22 104.64-4.35L104.64-4.35L104.64-4.35Q107.20-6.21 109.31-8.51L109.31-8.51L109.31-8.51Q111.30-10.82 111.49-10.82L111.49-10.82L111.49-10.82Q111.94-10.82 111.94-10.34L111.94-10.34L111.94-10.34Q111.94-9.86 111.36-9.22L111.36-9.22L109.31-6.91L109.31-6.91Q107.58-5.12 105.47-3.46L105.47-3.46L105.47-3.46Q100.42 0.32 97.15 0.32ZM123.14-2.30L121.09-0.96L121.09-0.96Q119.23 0.13 116.51 0.13L116.51 0.13L116.51 0.13Q113.79 0.13 112.35-1.66L112.35-1.66L112.35-1.66Q110.91-3.46 109.89-7.36L109.89-7.36L109.89-7.36Q108.74-6.21 108.29-6.21L108.29-6.21L108.29-6.21Q107.97-6.21 107.97-6.66L107.97-6.66L107.97-6.66Q107.97-7.10 108.29-7.42L108.29-7.42L108.29-7.42Q110.40-10.05 115.46-14.98L115.46-14.98L123.52-22.53L123.52-22.53Q126.98-25.79 127.62-25.79L127.62-25.79L127.62-25.79Q129.66-25.79 129.66-24.26L129.66-24.26L129.66-24.26Q129.66-23.49 129.06-22.75L129.06-22.75L129.06-22.75Q128.45-22.02 128.16-21.60L128.16-21.60L128.16-21.60Q127.87-21.18 127.55-20.80L127.55-20.80L127.55-20.80Q126.40-18.82 125.22-12.61L125.22-12.61L125.22-12.61Q124.03-6.40 123.39-3.97L123.39-3.97L123.39-3.97Q128.70-4.03 134.34-10.88L134.34-10.88L134.34-10.88Q134.98-11.52 135.30-11.52L135.30-11.52L135.30-11.52Q135.62-11.52 135.62-11.10L135.62-11.10L135.62-11.10Q135.62-10.69 135.04-9.98L135.04-9.98L135.04-9.98Q131.33-5.63 128.13-3.90L128.13-3.90L128.13-3.90Q126.21-2.94 123.14-2.30L123.14-2.30ZM112.45-8.06L112.45-8.06L112.45-8.06Q112.45-5.89 113.89-4.51L113.89-4.51L113.89-4.51Q115.33-3.14 117.12-3.14L117.12-3.14L117.12-3.14Q118.91-3.14 119.87-3.84L119.87-3.84L119.87-3.84Q121.15-4.54 122.40-9.73L122.40-9.73L122.40-9.73Q123.65-14.91 123.90-18.88L123.90-18.88L124.16-21.06L124.16-21.06Q120.64-18.43 116.64-14.27L116.64-14.27L116.64-14.27Q112.64-10.11 112.51-8.77L112.51-8.77L112.51-8.77Q112.45-8.38 112.45-8.06ZM148.99-13.57L148.99-13.57L148.99-13.57Q148.99-11.33 144.70-6.08L144.70-6.08L144.70-6.08Q139.65 0.13 136.06 0.13L136.06 0.13L135.04 0.13L135.04 0.13Q133.38 0.13 132.42-1.60L132.42-1.60L132.42-1.60Q131.65-2.82 131.65-4.29L131.65-4.29L131.65-4.29Q131.65-8.13 137.25-15.07L137.25-15.07L137.25-15.07Q142.85-22.02 146.30-22.02L146.30-22.02L146.30-22.02Q149.57-22.02 149.57-18.56L149.57-18.56L149.57-18.56Q149.57-17.66 149.25-16.26L149.25-16.26L149.25-16.26Q149.31-16.06 150.46-16.06L150.46-16.06L150.46-16.06Q151.62-16.06 153.98-17.28L153.98-17.28L153.98-17.28Q153.92-16.19 148.93-14.14L148.93-14.14L148.93-14.14Q148.99-13.89 148.99-13.57ZM144.83-16.90L144.83-16.90L144.83-16.90Q142.66-16.90 138.66-11.78L138.66-11.78L138.66-11.78Q134.66-6.66 134.66-4.22L134.66-4.22L134.66-4.22Q134.66-1.79 136.19-1.79L136.19-1.79L136.19-1.79Q138.94-1.79 143.17-6.78L143.17-6.78L143.17-6.78Q147.39-11.78 147.39-13.95L147.39-13.95L147.39-13.95Q146.37-14.53 144.83-16.90ZM160.58-20.22L160.58-20.22L160.58-20.22Q162.30-20.22 162.30-18.88L162.30-18.88L162.30-18.88Q162.30-18.50 162.11-18.11L162.11-18.11L162.11-18.11Q156.35-10.11 155.20-6.02L155.20-6.02L155.20-6.02Q170.11-20.93 173.31-20.93L173.31-20.93L173.31-20.93Q173.63-20.99 173.89-20.99L173.89-20.99L173.89-20.99Q175.68-20.99 175.68-19.39L175.68-19.39L175.68-19.39Q175.68-19.07 175.55-18.75L175.55-18.75L175.55-18.75Q175.42-18.43 172.99-15.30L172.99-15.30L172.99-15.30Q170.18-11.97 168.22-8.90L168.22-8.90L168.22-8.90Q166.27-5.82 166.27-3.78L166.27-3.78L166.27-3.78Q166.27-1.73 167.17-1.73L167.17-1.73L167.17-1.73Q169.98-1.73 176.96-9.47L176.96-9.47L176.96-9.47Q177.09-9.60 177.41-10.05L177.41-10.05L177.41-10.05Q178.37-11.20 178.56-11.20L178.56-11.20L178.56-11.20Q178.75-11.20 178.75-10.56L178.75-10.56L178.75-10.56Q178.75-9.92 177.86-8.90L177.86-8.90L177.86-8.90Q169.92 0.13 166.59 0.13L166.59 0.13L166.59 0.13Q163.46 0.13 163.46-3.33L163.46-3.33L163.46-3.33Q163.46-6.78 166.02-11.26L166.02-11.26L170.11-17.92L170.11-17.92Q165.76-14.72 162.37-10.91L162.37-10.91L162.37-10.91Q158.98-7.10 156.19-3.52L156.19-3.52L156.19-3.52Q153.41 0.06 152.96 0.06L152.96 0.06L152.96 0.06Q152.00 0.06 151.46-0.74L151.46-0.74L151.46-0.74Q150.91-1.54 150.91-2.72L150.91-2.72L150.91-2.72Q150.91-3.90 151.74-5.89L151.74-5.89L151.74-5.89Q152.58-7.87 153.86-10.69L153.86-10.69L150.02-6.66L150.02-6.66Q148.61-5.25 148.26-5.25L148.26-5.25L148.26-5.25Q147.90-5.25 147.90-5.66L147.90-5.66L147.90-5.66Q147.90-6.08 148.42-6.59L148.42-6.59L148.42-6.59Q150.78-8.96 152.51-11.14L152.51-11.14L152.51-11.14Q154.18-13.31 159.36-19.46L159.36-19.46L159.36-19.46Q159.94-20.22 160.58-20.22ZM197.31-19.14L197.31-19.14L198.21-19.33L198.21-19.33Q198.91-19.33 199.55-18.75L199.55-18.75L199.55-18.75Q200.19-18.18 200.19-17.86L200.19-17.86L200.19-17.86Q200.19-17.54 196.22-11.68L196.22-11.68L196.22-11.68Q192.26-5.82 192.26-3.52L192.26-3.52L192.26-3.52Q192.26-3.33 192.32-3.14L192.32-3.14L192.32-3.14Q192.64-1.66 193.73-1.66L193.73-1.66L193.73-1.66Q197.06-1.66 205.89-12.67L205.89-12.67L205.89-12.67Q206.08-12.93 206.34-12.93L206.34-12.93L206.34-12.93Q206.59-12.93 206.59-12.45L206.59-12.45L206.59-12.45Q206.59-11.97 206.02-11.20L206.02-11.20L206.02-11.20Q197.82-0.26 193.54-0.26L193.54-0.26L193.54-0.26Q192.96-0.26 192.45-0.45L192.45-0.45L192.45-0.45Q189.63-1.54 189.63-4.67L189.63-4.67L189.63-4.67Q189.63-5.76 189.89-6.85L189.89-6.85L185.92-3.01L185.92-3.01Q182.14 0.32 180.45 0.32L180.45 0.32L180.45 0.32Q178.75 0.32 177.22-0.77L177.22-0.77L177.22-0.77Q175.49-2.05 175.49-4.16L175.49-4.16L175.49-4.16Q175.49-8.83 182.02-15.33L182.02-15.33L182.02-15.33Q188.54-21.82 193.98-21.82L193.98-21.82L193.98-21.82Q196.10-21.82 196.80-20.35L196.80-20.35L196.80-20.35Q196.99-19.84 197.12-19.49L197.12-19.49L197.12-19.49Q197.25-19.14 197.31-19.14ZM178.18-3.39L178.18-3.39L178.18-3.39Q178.18-1.09 179.78-1.09L179.78-1.09L179.78-1.09Q183.49-1.09 189.89-9.22L189.89-9.22L196.67-18.56L196.67-18.56Q196.16-19.46 195.01-19.46L195.01-19.46L195.01-19.46Q191.10-19.46 184.64-13.41L184.64-13.41L184.64-13.41Q178.18-7.36 178.18-3.39ZM204.93-3.20L204.93-3.20L204.93-3.20Q204.93-1.28 207.04-1.28L207.04-1.28L207.04-1.28Q209.15-1.28 212.48-3.52L212.48-3.52L212.48-3.52Q215.81-5.76 218.94-9.60L218.94-9.60L218.94-9.60Q219.71-10.62 220.16-10.62L220.16-10.62L220.16-10.62Q220.61-10.62 220.61-10.24L220.61-10.24L220.61-10.24Q220.61-9.86 217.98-6.91L217.98-6.91L217.98-6.91Q211.58 0.13 207.30 0.13L207.30 0.13L207.30 0.13Q205.18 0.13 203.71-0.86L203.71-0.86L203.71-0.86Q202.24-1.86 202.24-3.94L202.24-3.94L202.24-3.94Q202.24-6.02 203.33-8.77L203.33-8.77L203.33-8.77Q205.18-13.12 209.28-19.71L209.28-19.71L209.28-19.71Q216.77-31.87 219.90-31.87L219.90-31.87L219.90-31.87Q220.54-31.87 221.22-31.39L221.22-31.39L221.22-31.39Q221.89-30.91 221.95-30.34L221.95-30.34L221.95-30.34Q220.48-28.35 216.29-22.72L216.29-22.72L216.29-22.72Q212.10-17.09 210.50-14.62L210.50-14.62L210.50-14.62Q208.90-12.16 208.10-10.94L208.10-10.94L208.10-10.94Q207.30-9.73 206.91-9.06L206.91-9.06L206.91-9.06Q206.53-8.38 206.02-7.30L206.02-7.30L206.02-7.30Q204.93-5.12 204.93-3.20ZM274.43-30.53L274.43-30.53L274.43-30.53Q274.43-30.02 273.12-30.02L273.12-30.02L273.12-30.02Q271.81-30.02 270.50-31.33L270.50-31.33L270.50-31.33Q269.18-32.64 269.18-34.53L269.18-34.53L269.18-34.53Q269.18-36.42 270.34-37.95L270.34-37.95L270.34-37.95Q272.77-41.28 278.46-42.69L278.46-42.69L278.46-42.69Q282.56-43.71 286.66-43.71L286.66-43.71L287.17-43.71L287.17-43.71Q287.74-43.71 290.30-43.52L290.30-43.52L290.30-43.52Q290.18-44.35 290.98-45.09L290.98-45.09L290.98-45.09Q291.78-45.82 292.80-45.82L292.80-45.82L292.80-45.82Q294.72-45.82 294.66-43.07L294.66-43.07L294.66-43.07Q301.57-41.86 301.95-39.36L301.95-39.36L301.95-39.36Q302.02-38.78 302.02-38.40L302.02-38.40L302.02-38.40Q302.02-37.12 301.28-37.12L301.28-37.12L301.28-37.12Q300.54-37.12 300.80-38.66L300.80-38.66L300.80-38.66Q299.20-41.02 294.46-41.98L294.46-41.98L294.46-41.98Q293.31-36.80 282.43-19.46L282.43-19.46L282.43-19.46Q275.20-8.06 265.60-0.38L265.60-0.38L265.60-0.38Q254.59 8.32 244.86 8.32L244.86 8.32L244.86 8.32Q238.91 8.32 236.03 5.31L236.03 5.31L236.03 5.31Q233.15 2.30 233.15-1.38L233.15-1.38L233.15-1.38Q233.15-5.06 234.56-7.68L234.56-7.68L234.56-7.68Q237.95-14.21 244.35-17.86L244.35-17.86L244.35-17.86Q249.09-20.61 253.12-20.61L253.12-20.61L253.12-20.61Q257.47-20.61 259.94-18.50L259.94-18.50L259.94-18.50Q262.40-16.38 262.40-13.18L262.40-13.18L262.40-13.18Q262.40-9.73 259.84-6.91L259.84-6.91L259.84-6.91Q258.24-5.12 257.28-5.12L257.28-5.12L257.28-5.12Q257.02-5.12 257.02-5.34L257.02-5.34L257.02-5.34Q257.02-5.57 257.22-5.95L257.22-5.95L257.22-5.95Q259.52-9.34 259.52-12.26L259.52-12.26L259.52-12.26Q259.52-15.17 257.92-17.02L257.92-17.02L257.92-17.02Q256.06-19.01 252.90-19.01L252.90-19.01L252.90-19.01Q249.73-19.01 245.82-16.45L245.82-16.45L245.82-16.45Q241.02-13.31 237.95-7.04L237.95-7.04L237.95-7.04Q236.35-3.90 236.35-0.54L236.35-0.54L236.35-0.54Q236.35 2.82 238.85 4.90L238.85 4.90L238.85 4.90Q241.34 6.98 245.57 6.98L245.57 6.98L245.57 6.98Q261.82 6.98 279.55-21.57L279.55-21.57L279.55-21.57Q290.18-38.59 290.43-42.43L290.43-42.43L290.43-42.43Q286.59-42.62 286.40-42.62L286.40-42.62L286.40-42.62Q283.39-42.62 278.69-40.96L278.69-40.96L278.69-40.96Q273.98-39.30 272.58-36.86L272.58-36.86L272.58-36.86Q272-35.90 272-34.75L272-34.75L272-34.75Q272-33.60 273.22-32.19L273.22-32.19L273.22-32.19Q274.43-30.78 274.43-30.53ZM299.97-13.57L299.97-13.57L299.97-13.57Q299.97-11.33 295.68-6.08L295.68-6.08L295.68-6.08Q290.62 0.13 287.04 0.13L287.04 0.13L286.02 0.13L286.02 0.13Q284.35 0.13 283.39-1.60L283.39-1.60L283.39-1.60Q282.62-2.82 282.62-4.29L282.62-4.29L282.62-4.29Q282.62-8.13 288.22-15.07L288.22-15.07L288.22-15.07Q293.82-22.02 297.28-22.02L297.28-22.02L297.28-22.02Q300.54-22.02 300.54-18.56L300.54-18.56L300.54-18.56Q300.54-17.66 300.22-16.26L300.22-16.26L300.22-16.26Q300.29-16.06 301.44-16.06L301.44-16.06L301.44-16.06Q302.59-16.06 304.96-17.28L304.96-17.28L304.96-17.28Q304.90-16.19 299.90-14.14L299.90-14.14L299.90-14.14Q299.97-13.89 299.97-13.57ZM295.81-16.90L295.81-16.90L295.81-16.90Q293.63-16.90 289.63-11.78L289.63-11.78L289.63-11.78Q285.63-6.66 285.63-4.22L285.63-4.22L285.63-4.22Q285.63-1.79 287.17-1.79L287.17-1.79L287.17-1.79Q289.92-1.79 294.14-6.78L294.14-6.78L294.14-6.78Q298.37-11.78 298.37-13.95L298.37-13.95L298.37-13.95Q297.34-14.53 295.81-16.90ZM319.17 0.38L319.17 0.38L319.17 0.38Q318.85 0.45 317.79 0.45L317.79 0.45L317.79 0.45Q316.74 0.45 315.68-0.38L315.68-0.38L315.68-0.38Q314.62-1.22 314.62-2.53L314.62-2.53L314.62-2.53Q314.62-3.84 315.10-5.44L315.10-5.44L315.10-5.44Q315.58-7.04 315.78-7.87L315.78-7.87L315.78-7.87Q308.42 0.70 304.26 0.70L304.26 0.70L304.26 0.70Q301.63 0.70 301.38-2.56L301.38-2.56L301.38-2.56Q301.38-2.82 301.38-3.01L301.38-3.01L301.38-3.01Q301.38-5.76 304.70-10.43L304.70-10.43L304.70-10.43Q302.85-8.77 300.93-6.59L300.93-6.59L300.93-6.59Q300.67-6.34 300.29-6.34L300.29-6.34L300.29-6.34Q300.03-6.34 300.03-6.66L300.03-6.66L300.03-6.66Q300.03-6.98 300.61-7.74L300.61-7.74L309.44-18.11L309.44-18.11Q311.10-20.03 312.83-20.03L312.83-20.03L312.83-20.03Q314.56-20.03 314.56-18.88L314.56-18.88L314.56-18.88Q314.56-18.43 314.18-18.05L314.18-18.05L314.18-18.05Q311.62-15.68 307.74-10.18L307.74-10.18L307.74-10.18Q303.87-4.67 303.87-2.05L303.87-2.05L303.87-2.05Q303.87-0.90 304.64-0.90L304.64-0.90L304.64-0.90Q307.33-0.90 312.45-6.21L312.45-6.21L312.45-6.21Q314.24-8 319.10-14.11L319.10-14.11L319.10-14.11Q323.97-20.22 325.50-20.22L325.50-20.22L325.50-20.22Q327.81-20.22 327.81-18.43L327.81-18.43L327.81-18.43Q327.81-17.79 325.12-14.72L325.12-14.72L325.12-14.72Q321.47-10.30 319.55-7.52L319.55-7.52L319.55-7.52Q317.63-4.74 317.63-3.01L317.63-3.01L317.63-3.01Q317.63-1.28 318.59-1.28L318.59-1.28L318.59-1.28Q319.04-1.28 319.62-1.54L319.62-1.54L319.62-1.54Q324.03-3.46 330.18-10.50L330.18-10.50L330.18-10.50Q330.56-10.94 330.94-10.94L330.94-10.94L330.94-10.94Q331.33-10.94 331.33-10.53L331.33-10.53L331.33-10.53Q331.33-10.11 330.88-9.60L330.88-9.60L330.88-9.60Q328.13-6.40 324.42-3.17L324.42-3.17L324.42-3.17Q320.70 0.06 319.17 0.38ZM341.50 0.32L341.50 0.32L341.50 0.32Q336.70 0.32 336.70-4.99L336.70-4.99L336.70-4.99Q336.70-7.68 338.11-10.88L338.11-10.88L338.11-10.88Q339.52-14.08 341.18-16.26L341.18-16.26L341.18-16.26Q340.86-16.19 340.35-16.19L340.35-16.19L340.35-16.19Q338.82-16.19 337.79-18.37L337.79-18.37L333.06-12.22L333.06-12.22Q329.09-7.30 328.45-7.30L328.45-7.30L328.45-7.30Q328.13-7.30 328.13-7.55L328.13-7.55L328.13-7.55Q328.13-8.19 329.22-9.41L329.22-9.41L329.22-9.41Q334.78-15.87 337.09-20.35L337.09-20.35L337.09-20.35Q338.56-25.92 340.80-25.92L340.80-25.92L340.80-25.92Q342.27-25.92 342.27-24.64L342.27-24.64L342.27-24.64Q342.27-23.36 340.67-21.38L340.67-21.38L339.14-19.33L339.14-19.33Q339.14-17.98 341.12-17.98L341.12-17.98L341.12-17.98Q342.27-17.98 343.68-18.82L343.68-18.82L345.34-19.84L345.34-19.84Q345.47-19.90 345.98-19.90L345.98-19.90L345.98-19.90Q346.50-19.90 347.07-19.26L347.07-19.26L347.07-19.26Q347.65-18.62 347.46-18.11L347.46-18.11L343.04-12.54L343.04-12.54Q338.94-7.30 338.94-4.26L338.94-4.26L338.94-4.26Q338.94-1.22 341.76-1.22L341.76-1.22L341.76-1.22Q344.70-1.22 348.99-4.35L348.99-4.35L348.99-4.35Q351.55-6.21 353.66-8.51L353.66-8.51L353.66-8.51Q355.65-10.82 355.84-10.82L355.84-10.82L355.84-10.82Q356.29-10.82 356.29-10.34L356.29-10.34L356.29-10.34Q356.29-9.86 355.71-9.22L355.71-9.22L353.66-6.91L353.66-6.91Q351.94-5.12 349.82-3.46L349.82-3.46L349.82-3.46Q344.77 0.32 341.50 0.32ZM363.97-20.22L363.97-20.22L363.97-20.22Q365.70-20.22 365.70-18.88L365.70-18.88L365.70-18.88Q365.70-18.50 365.50-18.11L365.50-18.11L365.50-18.11Q359.74-10.11 358.59-6.02L358.59-6.02L358.59-6.02Q373.50-20.93 376.70-20.93L376.70-20.93L376.70-20.93Q377.02-20.99 377.28-20.99L377.28-20.99L377.28-20.99Q379.07-20.99 379.07-19.39L379.07-19.39L379.07-19.39Q379.07-19.07 378.94-18.75L378.94-18.75L378.94-18.75Q378.82-18.43 376.38-15.30L376.38-15.30L376.38-15.30Q373.57-11.97 371.62-8.90L371.62-8.90L371.62-8.90Q369.66-5.82 369.66-3.78L369.66-3.78L369.66-3.78Q369.66-1.73 370.56-1.73L370.56-1.73L370.56-1.73Q373.38-1.73 380.35-9.47L380.35-9.47L380.35-9.47Q380.48-9.60 380.80-10.05L380.80-10.05L380.80-10.05Q381.76-11.20 381.95-11.20L381.95-11.20L381.95-11.20Q382.14-11.20 382.14-10.56L382.14-10.56L382.14-10.56Q382.14-9.92 381.25-8.90L381.25-8.90L381.25-8.90Q373.31 0.13 369.98 0.13L369.98 0.13L369.98 0.13Q366.85 0.13 366.85-3.33L366.85-3.33L366.85-3.33Q366.85-6.78 369.41-11.26L369.41-11.26L373.50-17.92L373.50-17.92Q369.15-14.72 365.76-10.91L365.76-10.91L365.76-10.91Q362.37-7.10 359.58-3.52L359.58-3.52L359.58-3.52Q356.80 0.06 356.35 0.06L356.35 0.06L356.35 0.06Q355.39 0.06 354.85-0.74L354.85-0.74L354.85-0.74Q354.30-1.54 354.30-2.72L354.30-2.72L354.30-2.72Q354.30-3.90 355.14-5.89L355.14-5.89L355.14-5.89Q355.97-7.87 357.25-10.69L357.25-10.69L353.41-6.66L353.41-6.66Q352-5.25 351.65-5.25L351.65-5.25L351.65-5.25Q351.30-5.25 351.30-5.66L351.30-5.66L351.30-5.66Q351.30-6.08 351.81-6.59L351.81-6.59L351.81-6.59Q354.18-8.96 355.90-11.14L355.90-11.14L355.90-11.14Q357.57-13.31 362.75-19.46L362.75-19.46L362.75-19.46Q363.33-20.22 363.97-20.22ZM400.70-19.14L400.70-19.14L401.60-19.33L401.60-19.33Q402.30-19.33 402.94-18.75L402.94-18.75L402.94-18.75Q403.58-18.18 403.58-17.86L403.58-17.86L403.58-17.86Q403.58-17.54 399.62-11.68L399.62-11.68L399.62-11.68Q395.65-5.82 395.65-3.52L395.65-3.52L395.65-3.52Q395.65-3.33 395.71-3.14L395.71-3.14L395.71-3.14Q396.03-1.66 397.12-1.66L397.12-1.66L397.12-1.66Q400.45-1.66 409.28-12.67L409.28-12.67L409.28-12.67Q409.47-12.93 409.73-12.93L409.73-12.93L409.73-12.93Q409.98-12.93 409.98-12.45L409.98-12.45L409.98-12.45Q409.98-11.97 409.41-11.20L409.41-11.20L409.41-11.20Q401.22-0.26 396.93-0.26L396.93-0.26L396.93-0.26Q396.35-0.26 395.84-0.45L395.84-0.45L395.84-0.45Q393.02-1.54 393.02-4.67L393.02-4.67L393.02-4.67Q393.02-5.76 393.28-6.85L393.28-6.85L389.31-3.01L389.31-3.01Q385.54 0.32 383.84 0.32L383.84 0.32L383.84 0.32Q382.14 0.32 380.61-0.77L380.61-0.77L380.61-0.77Q378.88-2.05 378.88-4.16L378.88-4.16L378.88-4.16Q378.88-8.83 385.41-15.33L385.41-15.33L385.41-15.33Q391.94-21.82 397.38-21.82L397.38-21.82L397.38-21.82Q399.49-21.82 400.19-20.35L400.19-20.35L400.19-20.35Q400.38-19.84 400.51-19.49L400.51-19.49L400.51-19.49Q400.64-19.14 400.70-19.14ZM381.57-3.39L381.57-3.39L381.57-3.39Q381.57-1.09 383.17-1.09L383.17-1.09L383.17-1.09Q386.88-1.09 393.28-9.22L393.28-9.22L400.06-18.56L400.06-18.56Q399.55-19.46 398.40-19.46L398.40-19.46L398.40-19.46Q394.50-19.46 388.03-13.41L388.03-13.41L388.03-13.41Q381.57-7.36 381.57-3.39ZM408.32-3.20L408.32-3.20L408.32-3.20Q408.32-1.28 410.43-1.28L410.43-1.28L410.43-1.28Q412.54-1.28 415.87-3.52L415.87-3.52L415.87-3.52Q419.20-5.76 422.34-9.60L422.34-9.60L422.34-9.60Q423.10-10.62 423.55-10.62L423.55-10.62L423.55-10.62Q424-10.62 424-10.24L424-10.24L424-10.24Q424-9.86 421.38-6.91L421.38-6.91L421.38-6.91Q414.98 0.13 410.69 0.13L410.69 0.13L410.69 0.13Q408.58 0.13 407.10-0.86L407.10-0.86L407.10-0.86Q405.63-1.86 405.63-3.94L405.63-3.94L405.63-3.94Q405.63-6.02 406.72-8.77L406.72-8.77L406.72-8.77Q408.58-13.12 412.67-19.71L412.67-19.71L412.67-19.71Q420.16-31.87 423.30-31.87L423.30-31.87L423.30-31.87Q423.94-31.87 424.61-31.39L424.61-31.39L424.61-31.39Q425.28-30.91 425.34-30.34L425.34-30.34L425.34-30.34Q423.87-28.35 419.68-22.72L419.68-22.72L419.68-22.72Q415.49-17.09 413.89-14.62L413.89-14.62L413.89-14.62Q412.29-12.16 411.49-10.94L411.49-10.94L411.49-10.94Q410.69-9.73 410.30-9.06L410.30-9.06L410.30-9.06Q409.92-8.38 409.41-7.30L409.41-7.30L409.41-7.30Q408.32-5.12 408.32-3.20Z" fill="#444"></path></g></g><style>text {
  font-size: 64px;
  font-family: Arial Black;
  dominant-baseline: central;
  text-anchor: middle;
}</style></svg>